<svg width="1024" height="228" viewBox="0 0 1024 228" fill="none" xmlns="http://www.w3.org/2000/svg">
<path d="M1564.17 135.329C1502.57 128.337 1331.62 120.769 1223.32 151.31C1115.01 181.85 1102.54 153.149 1109.84 134.981C1128.28 108.065 1090.92 82.7155 1050.21 113.752C1009.51 144.789 918.996 153.205 878.829 153.534C792.848 157.367 628.48 133.489 600.658 126.889C556.05 116.306 372.12 54.8302 221.11 73.6595C100.302 88.723 35.46 113.956 27.7619 130.815C11.0348 153.726 16.6467 177.051 195.032 138.742C373.417 100.432 319.91 26.2507 410.351 52.5244L636.435 175.43C690.561 208.403 859.802 87.964 997.246 111.894C1169.05 141.806 1205.71 211.55 1337.36 174.83C1469.01 138.11 1520.93 128.751 1564.17 135.329Z" stroke="#FFC603"/>
<path d="M-184.861 136.722C-148.952 130.543 -48.9027 120.291 15.6904 134.373C80.2835 148.455 86.6211 131.314 81.7158 120.984C69.9749 105.94 91.0335 89.9011 115.979 106.583C140.925 123.265 194.322 125.071 217.902 123.889C268.484 123.182 364.115 103.657 380.214 98.8616C406.027 91.1736 511.85 49.0852 601.102 54.8868C672.504 59.5281 711.414 72.005 716.508 81.5596C727.106 94.3294 724.611 108.104 618.629 91.8947C512.648 75.6853 541.508 30.6573 489.338 49.0497L360.881 128.352C330.248 149.404 226.825 85.0551 146.994 103.69C47.2068 126.983 28.0836 168.851 -50.4229 151.969C-128.929 135.087 -159.715 131.412 -184.861 136.722Z" stroke="#FFC603"/>
</svg>
