<svg width="1920" height="219" viewBox="0 0 1920 219" fill="none" xmlns="http://www.w3.org/2000/svg">
<path d="M318.83 166.976C377.479 156.822 540.884 139.986 646.389 163.184C751.893 186.381 762.238 158.176 754.223 141.174C735.041 116.412 769.43 90.0241 810.179 117.486C850.929 144.949 938.142 147.941 976.655 146.005C1059.27 144.858 1215.46 112.76 1241.75 104.875C1283.91 92.2325 1456.73 23.0063 1602.51 32.5863C1719.13 40.2503 1782.68 60.7976 1791.01 76.5235C1808.32 97.5424 1804.25 120.211 1631.15 93.4964C1458.04 66.7822 1505.16 -7.30975 1419.96 22.9397L1210.18 153.401C1160.16 188.035 991.214 82.0984 860.835 112.736C697.862 151.034 666.643 219.928 538.413 192.118C410.183 164.307 359.9 158.248 318.83 166.976Z" stroke="#FFC603"/>
<path d="M1995.11 70.2648C1960.35 66.3568 1863.89 62.1402 1802.78 79.2563C1741.66 96.3725 1734.63 80.3014 1738.75 70.1264C1749.16 55.0508 1728.08 40.86 1705.11 58.2455C1682.13 75.6311 1631.06 80.3557 1608.4 80.5449C1559.88 82.7019 1467.14 69.3508 1451.44 65.658C1426.27 59.7371 1322.5 25.3336 1237.29 35.8968C1169.12 44.3474 1132.53 58.4859 1128.18 67.9282C1118.74 80.7603 1121.9 93.8216 1222.56 72.3461C1323.22 50.8707 1293.04 9.33559 1344.07 24.0376L1471.62 92.8367C1502.16 111.295 1597.67 43.8279 1675.22 57.2114C1772.16 73.9408 1792.83 112.993 1867.12 92.4135C1941.41 71.8339 1970.71 66.5863 1995.11 70.2648Z" stroke="#FFC603"/>
<path d="M777.902 105.834C743.142 101.926 646.685 97.7089 585.571 114.825C524.457 131.941 517.422 115.87 521.544 105.695C531.953 90.6195 510.872 76.4287 487.9 93.8142C464.929 111.2 413.857 115.924 391.192 116.114C342.676 118.271 249.934 104.92 234.237 101.227C209.068 95.3058 105.292 60.9023 20.0818 71.4655C-48.0863 79.9161 -84.677 94.0546 -89.0228 103.497C-98.464 116.329 -95.3003 129.39 5.35882 107.915C106.018 86.4394 75.8359 44.9043 126.864 59.6064L254.418 128.405C284.954 146.863 380.464 79.3966 458.015 92.7801C554.952 109.51 575.626 148.562 649.917 127.982C724.208 107.403 753.506 102.155 777.902 105.834Z" stroke="#FFC603"/>
</svg>
