<svg width="1024" height="219" viewBox="0 0 1024 219" fill="none" xmlns="http://www.w3.org/2000/svg">
<path d="M265.83 166.976C324.479 156.821 487.884 139.986 593.389 163.184C698.893 186.381 709.238 158.176 701.223 141.174C682.041 116.412 716.43 90.0238 757.179 117.486C797.929 144.948 885.142 147.941 923.655 146.004C1006.27 144.858 1162.46 112.76 1188.75 104.875C1230.91 92.2322 1403.73 23.006 1549.51 32.5861C1666.13 40.2501 1729.68 60.7974 1738.01 76.5232C1755.32 97.5422 1751.25 120.21 1578.15 93.4962C1405.04 66.7819 1452.16 -7.31 1366.96 22.9395L1157.18 153.4C1107.16 188.034 938.214 82.0981 807.835 112.736C644.862 151.033 613.643 219.928 485.413 192.117C357.183 164.307 306.9 158.248 265.83 166.976Z" stroke="#FFC603"/>
<path d="M724.902 105.833C690.142 101.925 593.685 97.7083 532.571 114.824C471.457 131.941 464.422 115.87 468.544 105.694C478.953 90.6189 457.872 76.4281 434.9 93.8136C411.929 111.199 360.857 115.924 338.192 116.113C289.676 118.27 196.934 104.919 181.237 101.226C156.068 95.3052 52.2919 60.9017 -32.9182 71.4649C-101.086 79.9155 -137.677 94.054 -142.023 103.496C-151.464 116.328 -148.3 129.39 -47.6412 107.914C53.018 86.4388 22.8359 44.9037 73.8643 59.6057L201.418 128.405C231.954 146.863 327.464 79.396 405.015 92.7795C501.952 109.509 522.626 148.561 596.917 127.982C671.208 107.402 700.506 102.154 724.902 105.833Z" stroke="#FFC603"/>
</svg>
