<svg width="1920" height="271" viewBox="0 0 1920 271" fill="none" xmlns="http://www.w3.org/2000/svg">
<path d="M278.047 167.95C337.051 160.118 500.993 149.744 605.5 177.087C710.007 204.431 721.457 176.656 714.119 159.351C695.929 133.851 731.333 108.841 770.967 137.89C810.601 166.939 897.628 173.371 936.187 172.956C1018.78 175.07 1176.11 149.162 1202.7 142.32C1245.32 131.351 1420.74 68.9996 1566.03 84.3253C1682.26 96.5859 1744.95 119.625 1752.65 135.667C1769.12 157.353 1764.16 179.843 1592.24 146.318C1420.33 112.793 1470.33 40.6186 1384.01 67.482L1169.24 189.562C1117.89 222.195 953.257 109.674 821.771 135.142C657.412 166.978 623.499 234.587 496.467 201.737C369.434 168.888 319.429 160.849 278.047 167.95Z" stroke="#FFC603"/>
<path d="M1956.84 137.469C1922.26 132.192 1826.04 124.172 1764.3 138.863C1702.56 153.554 1696.16 137.218 1700.68 127.213C1711.68 112.56 1691.17 97.5484 1667.53 114.014C1643.89 130.479 1592.67 133.185 1570.02 132.479C1521.46 132.72 1429.31 115.719 1413.77 111.41C1388.86 104.5 1286.52 66.0277 1200.96 73.2199C1132.51 78.9736 1095.39 91.657 1090.68 100.92C1080.74 113.37 1083.38 126.546 1184.81 109.06C1286.24 91.5736 1257.72 48.8797 1308.13 65.5841L1432.87 139.364C1462.65 159.012 1560.75 95.3674 1637.71 111.801C1733.91 132.343 1753.03 172.181 1828.08 154.549C1903.12 136.918 1932.6 132.83 1956.84 137.469Z" stroke="#FFC603"/>
<path d="M739.175 124.972C704.596 119.695 608.38 111.675 546.638 126.366C484.897 141.057 478.502 124.721 483.022 114.716C494.018 100.063 473.513 85.0516 449.873 101.517C426.233 117.982 375.015 120.688 352.36 119.982C303.797 120.223 211.654 103.222 196.115 98.9127C171.199 92.0031 68.8619 53.5309 -16.6988 60.723C-85.1473 66.4767 -122.267 79.1602 -126.982 88.4236C-136.923 100.873 -134.277 114.049 -32.8487 96.5629C68.5795 79.0768 40.0602 36.3829 90.4685 53.0873L215.207 126.867C244.992 146.516 343.09 82.8706 420.052 99.3042C516.254 119.846 535.37 159.684 610.415 142.052C685.461 124.421 714.942 120.333 739.175 124.972Z" stroke="#FFC603"/>
<path d="M258.125 140.306C317.413 135.048 481.652 131.816 584.87 163.679C688.089 195.543 700.736 168.292 694.157 150.684C677.094 124.417 713.552 100.971 751.885 131.716C790.218 162.462 876.883 172.674 915.424 173.937C997.85 179.642 1156.16 160.602 1183.01 154.924C1226.07 145.819 1404.04 91.1573 1548.52 112.789C1664.11 130.094 1725.74 155.839 1732.73 172.2C1748.25 194.582 1742.31 216.835 1572.02 175.863C1401.72 134.891 1454.82 64.9605 1367.41 88.0431L1147.53 200.665C1094.81 231.033 935.231 111.457 802.761 131.182C637.173 155.838 600.351 221.907 474.868 183.563C349.384 145.218 299.777 135.012 258.125 140.306Z" stroke="#FFC603" stroke-opacity="0.52"/>
<path d="M1936.65 182.882C1902.33 176.106 1806.56 163.908 1744.23 175.899C1681.91 187.891 1676.23 171.292 1681.19 161.493C1692.81 147.333 1672.98 131.443 1648.64 146.864C1624.31 162.286 1573.02 162.761 1550.42 161.07C1501.89 159.198 1410.57 138.205 1395.24 133.224C1370.65 125.237 1270.08 82.3495 1184.29 85.8128C1115.65 88.5835 1078.02 99.6402 1072.9 108.69C1062.43 120.695 1064.5 133.974 1166.59 120.916C1268.69 107.859 1242.05 63.9648 1291.68 82.8462L1413.1 161.982C1442 182.908 1542.77 123.591 1618.94 143.357C1714.16 168.064 1731.53 208.696 1807.27 194.345C1883.01 179.995 1912.64 177.194 1936.65 182.882Z" stroke="#FFC603" stroke-opacity="0.52"/>
<path d="M720.685 117.428C686.369 110.652 590.593 98.4541 528.27 110.445C465.948 122.436 460.27 105.838 465.221 96.0392C476.844 81.8784 457.012 65.9889 432.678 81.4104C408.344 96.8319 357.056 97.3066 334.454 95.6163C285.926 93.7442 194.61 72.7512 179.273 67.7698C154.681 59.783 54.1144 16.8954 -31.6781 20.3587C-100.312 23.1294 -137.949 34.1861 -143.062 43.2356C-153.535 55.2409 -151.465 68.5195 -49.3719 55.4622C52.721 42.4048 26.0859 -1.48933 75.7199 17.3921L197.131 96.5279C226.033 117.454 326.807 58.1364 402.981 77.9025C498.198 102.61 515.563 143.242 591.305 128.891C667.046 114.541 696.677 111.74 720.685 117.428Z" stroke="#FFC603" stroke-opacity="0.52"/>
</svg>
