<svg width="1920" height="228" viewBox="0 0 1920 228" fill="none" xmlns="http://www.w3.org/2000/svg">
<path d="M1574.59 135.329C1512.99 128.337 1342.04 120.769 1233.73 151.309C1125.43 181.85 1112.96 153.149 1120.26 134.981C1138.7 108.064 1101.33 82.7152 1060.63 113.752C1019.92 144.788 929.414 153.205 889.247 153.534C803.265 157.367 638.897 133.489 611.076 126.888C566.468 116.306 382.538 54.8299 231.528 73.6592C110.72 88.7227 45.8777 113.956 38.1796 130.815C21.4525 153.726 27.0645 177.051 205.449 138.741C383.834 100.432 330.328 26.2505 420.769 52.5242L646.852 175.43C700.979 208.403 870.22 87.9637 1007.66 111.893C1179.47 141.805 1216.12 211.55 1347.78 174.83C1479.43 138.11 1531.35 128.75 1574.59 135.329Z" stroke="#FFC603"/>
<path d="M-174.443 136.722C-138.534 130.543 -38.4849 120.291 26.1082 134.373C90.7014 148.455 97.0389 131.314 92.1336 120.984C80.3927 105.94 101.451 89.9011 126.397 106.583C151.343 123.265 204.74 125.071 228.32 123.889C278.902 123.182 374.532 103.657 390.632 98.8616C416.444 91.1736 522.268 49.0852 611.52 54.8868C682.921 59.5281 721.832 72.005 726.925 81.5596C737.524 94.3294 735.028 108.104 629.047 91.8947C523.066 75.6853 551.926 30.6573 499.756 49.0497L371.299 128.352C340.666 149.404 237.242 85.0551 157.412 103.69C57.6247 126.983 38.5014 168.851 -40.005 151.969C-118.511 135.087 -149.297 131.412 -174.443 136.722Z" stroke="#FFC603"/>
<path d="M1093.49 99.6706C1129.39 93.4923 1229.44 83.2403 1294.04 97.3219C1358.63 111.404 1364.97 94.2634 1360.06 83.9332C1348.32 68.8893 1369.38 52.8501 1394.33 69.5319C1419.27 86.2138 1472.67 88.0204 1496.25 86.8385C1546.83 86.1305 1642.46 66.6055 1658.56 61.8106C1684.37 54.1226 1790.2 12.0342 1879.45 17.8358C1950.85 22.4771 1989.76 34.954 1994.85 44.5086C2005.45 57.2783 2002.96 71.0531 1896.98 54.8437C1790.99 38.6343 1819.85 -6.39375 1767.68 11.9987L1639.23 91.3011C1608.6 112.353 1505.17 48.0041 1425.34 66.6387C1325.55 89.9319 1306.43 131.8 1227.92 114.918C1149.42 98.0362 1118.63 94.3613 1093.49 99.6706Z" stroke="#FFC603"/>
</svg>
